<?xml version="1.0" standalone="no"?>
<!DOCTYPE svg PUBLIC "-//W3C//DTD SVG 20010904//EN"
 "http://www.w3.org/TR/2001/REC-SVG-20010904/DTD/svg10.dtd">
<svg version="1.0" xmlns="http://www.w3.org/2000/svg"
 width="308.000000pt" height="308.000000pt" viewBox="0 0 308.000000 308.000000"
 preserveAspectRatio="xMidYMid meet">
<metadata>
Created by potrace 1.14, written by Peter Selinger 2001-2017
</metadata>
<g transform="translate(0.000000,308.000000) scale(0.100000,-0.100000)"
fill="#000000" stroke="none">
<path d="M340 2340 c-20 -20 -20 -33 -20 -810 l0 -790 995 0 c876 0 995 2 995
15 0 13 -113 15 -932 17 l-933 3 -3 733 -2 732 995 0 995 0 0 -174 c0 -133 3
-176 13 -185 8 -6 17 -8 20 -4 4 3 7 107 7 229 0 219 0 223 -22 238 -20 14
-137 16 -1055 16 -1020 0 -1033 0 -1053 -20z m66 -40 c0 -14 -7 -20 -23 -20
-22 0 -31 19 -16 33 14 15 39 6 39 -13z m81 0 c-1 -13 -8 -20 -23 -20 -13 0
-24 8 -27 20 -4 17 0 20 23 20 23 0 28 -4 27 -20z m83 0 c0 -15 -7 -20 -25
-20 -18 0 -25 5 -25 20 0 15 7 20 25 20 18 0 25 -5 25 -20z m1858 -2 c3 -17
-46 -18 -912 -18 -910 0 -916 0 -916 20 0 20 5 20 912 18 860 -3 913 -4 916
-20z m-2028 -123 c0 -58 -2 -65 -20 -65 -18 0 -20 7 -20 65 0 58 2 65 20 65
18 0 20 -7 20 -65z m0 -140 c0 -38 -3 -45 -20 -45 -17 0 -20 7 -20 45 0 38 3
45 20 45 17 0 20 -7 20 -45z m0 -120 c0 -38 -3 -45 -20 -45 -17 0 -20 7 -20
39 0 35 8 48 33 50 4 1 7 -19 7 -44z m0 -124 c0 -44 -2 -49 -20 -44 -27 7 -29
79 -2 86 9 3 18 5 20 6 1 0 2 -21 2 -48z m0 -120 c0 -44 -2 -49 -20 -44 -27 7
-29 79 -2 86 9 3 18 5 20 6 1 0 2 -21 2 -48z m0 -120 c0 -44 -2 -49 -20 -44
-27 7 -29 79 -2 86 9 3 18 5 20 6 1 0 2 -21 2 -48z m0 -126 c0 -38 -3 -45 -20
-45 -17 0 -20 7 -20 45 0 38 3 45 20 45 17 0 20 -7 20 -45z m0 -120 c0 -38 -3
-45 -20 -45 -17 0 -20 7 -20 45 0 38 3 45 20 45 17 0 20 -7 20 -45z m0 -124
c0 -44 -2 -49 -20 -44 -27 7 -29 79 -2 86 9 3 18 5 20 6 1 0 2 -21 2 -48z m0
-120 c0 -44 -2 -49 -20 -44 -27 7 -29 79 -2 86 9 3 18 5 20 6 1 0 2 -21 2 -48z
m0 -120 c0 -44 -2 -49 -20 -44 -27 7 -29 79 -2 86 9 3 18 5 20 6 1 0 2 -21 2
-48z m0 -126 c0 -38 -3 -45 -20 -45 -17 0 -20 7 -20 45 0 38 3 45 20 45 17 0
20 -7 20 -45z"/>
<path d="M527 2104 c-17 -17 12 -24 99 -24 77 0 94 3 94 15 0 12 -17 15 -93
15 -52 0 -97 -3 -100 -6z"/>
<path d="M572 1973 c3 -16 17 -18 107 -21 99 -3 139 7 125 29 -3 5 -57 9 -120
9 -105 0 -115 -2 -112 -17z"/>
<path d="M852 1973 c3 -17 25 -18 272 -21 262 -2 307 2 290 29 -3 5 -131 9
-285 9 -262 0 -280 -1 -277 -17z"/>
<path d="M612 1853 c3 -17 27 -18 338 -18 311 0 335 1 338 18 3 16 -18 17
-338 17 -320 0 -341 -1 -338 -17z"/>
<path d="M1342 1853 c3 -17 24 -18 278 -18 254 0 275 1 278 18 3 16 -15 17
-278 17 -263 0 -281 -1 -278 -17z"/>
<path d="M2435 1778 c-3 -8 -4 -70 -3 -138 3 -110 5 -125 21 -128 16 -3 17 7
15 134 -2 99 -6 139 -15 142 -7 2 -15 -3 -18 -10z"/>
<path d="M650 1730 c0 -20 4 -20 463 -18 403 3 462 5 462 18 0 13 -59 15 -462
18 -459 2 -463 2 -463 -18z"/>
<path d="M1990 1652 c0 -19 158 -182 177 -182 35 0 17 30 -63 111 -88 89 -114
105 -114 71z"/>
<path d="M2807 1582 c-83 -84 -102 -112 -74 -112 20 0 190 176 183 189 -4 6
-10 11 -14 11 -4 0 -47 -39 -95 -88z"/>
<path d="M610 1610 c0 -18 7 -20 73 -20 78 0 89 4 80 26 -4 10 -25 14 -79 14
-67 0 -74 -2 -74 -20z"/>
<path d="M817 1623 c-4 -3 -7 -12 -7 -20 0 -11 53 -13 298 -11 256 3 297 5
297 18 0 13 -40 15 -291 18 -160 1 -293 -1 -297 -5z"/>
<path d="M617 1504 c-4 -4 -7 -13 -7 -21 0 -10 47 -13 241 -13 224 0 240 1
237 18 -3 15 -23 17 -234 20 -127 1 -233 -1 -237 -4z"/>
<path d="M1141 1497 c-6 -8 -8 -17 -4 -20 12 -12 391 -8 399 4 14 23 -26 29
-202 29 -140 0 -184 -3 -193 -13z"/>
<path d="M2132 1317 c-56 -56 -102 -108 -102 -115 0 -20 402 -460 421 -461 12
-1 299 303 407 430 l25 31 -109 109 -109 109 -215 0 -215 0 -103 -103z m268
65 c0 -4 -29 -43 -65 -86 l-65 -78 0 86 0 86 65 0 c36 0 65 -4 65 -8z m238
-74 c2 -43 -1 -78 -5 -78 -9 0 -133 145 -133 155 0 3 30 5 68 3 l67 -3 3 -77z
m-94 -43 l67 -80 -152 -3 c-84 -1 -154 0 -157 2 -2 3 31 46 73 96 64 75 80 89
91 78 7 -7 42 -49 78 -93z m-318 -72 c-3 -3 -35 0 -71 7 l-67 13 69 69 68 69
3 -77 c2 -42 1 -79 -2 -81z m584 26 c0 -7 -17 -12 -92 -25 l-38 -6 0 83 0 83
65 -64 c36 -35 65 -68 65 -71z m-615 -67 c39 -7 41 -9 103 -131 35 -67 62
-124 60 -126 -3 -3 -229 241 -241 262 -6 11 -3 12 15 8 13 -3 41 -9 63 -13z
m547 -49 c-34 -38 -93 -102 -132 -143 l-70 -75 64 131 64 131 59 10 c32 5 62
11 67 12 4 0 -19 -29 -52 -66z m-122 32 c0 -10 -160 -325 -165 -325 -5 0 -165
315 -165 325 0 3 74 5 165 5 91 0 165 -2 165 -5z"/>
<path d="M570 1365 c0 -13 44 -15 340 -15 296 0 340 2 340 15 0 13 -44 15
-340 15 -296 0 -340 -2 -340 -15z"/>
<path d="M1300 1365 c0 -13 22 -15 140 -15 118 0 140 2 140 15 0 13 -22 15
-140 15 -118 0 -140 -2 -140 -15z"/>
<path d="M612 1243 c3 -17 21 -18 218 -18 197 0 215 1 218 18 3 16 -12 17
-218 17 -206 0 -221 -1 -218 -17z"/>
<path d="M1094 1249 c-3 -6 -2 -15 3 -20 5 -5 132 -8 304 -7 271 3 294 4 297
21 3 16 -16 17 -297 17 -205 0 -302 -3 -307 -11z"/>
<path d="M610 1120 c0 -20 5 -21 78 -18 60 2 77 6 77 18 0 12 -17 16 -77 18
-73 3 -78 2 -78 -18z"/>
<path d="M812 1123 c3 -17 24 -18 298 -18 256 0 295 2 295 15 0 13 -41 15
-298 18 -281 2 -298 1 -295 -15z"/>
<path d="M570 1000 c0 -20 4 -20 238 -18 203 3 237 5 237 18 0 13 -34 15 -237
18 -234 2 -238 2 -238 -18z"/>
<path d="M532 887 c-19 -23 -3 -27 95 -27 85 0 94 2 91 18 -3 14 -17 17 -89
20 -64 2 -89 -1 -97 -11z"/>
</g>
</svg>
